<?xml version="1.0" encoding="UTF-8"?>
<svg id="_레이어_1" data-name="레이어 1" xmlns="http://www.w3.org/2000/svg" viewBox="0 0 568.47 77.91">
  <defs>
    <style>
      .cls-1 {
        fill: #f3b924;
      }

      .cls-1, .cls-2, .cls-3, .cls-4, .cls-5, .cls-6, .cls-7, .cls-8, .cls-9, .cls-10, .cls-11, .cls-12, .cls-13, .cls-14, .cls-15, .cls-16, .cls-17, .cls-18, .cls-19, .cls-20, .cls-21, .cls-22, .cls-23, .cls-24, .cls-25, .cls-26, .cls-27 {
        stroke-width: 0px;
      }

      .cls-2 {
        fill: #27acae;
      }

      .cls-3 {
        fill: #27acaf;
      }

      .cls-4 {
        fill: #191612;
      }

      .cls-5 {
        fill: #1d1915;
      }

      .cls-6 {
        fill: #090706;
      }

      .cls-7 {
        fill: #434951;
      }

      .cls-8 {
        fill: #226d6f;
      }

      .cls-9 {
        fill: #211c17;
      }

      .cls-10 {
        fill: #201b16;
      }

      .cls-11 {
        fill: #201b18;
      }

      .cls-12 {
        fill: #201b17;
      }

      .cls-13 {
        fill: #1f1a15;
      }

      .cls-14 {
        fill: #1e1a16;
      }

      .cls-15 {
        fill: #1e1a17;
      }

      .cls-16 {
        fill: #e0ac32;
      }

      .cls-17 {
        fill: #d6a737;
      }

      .cls-18 {
        fill: #e7b12e;
      }

      .cls-19 {
        fill: #e9b22d;
      }

      .cls-20 {
        fill: #ebb42a;
      }

      .cls-21 {
        fill: #ebb32b;
      }

      .cls-22 {
        fill: #efb628;
      }

      .cls-23 {
        fill: #ecb42a;
      }

      .cls-24 {
        fill: #f1b726;
      }

      .cls-25 {
        fill: #e8b22c;
      }

      .cls-26 {
        fill: #e8b12e;
      }

      .cls-27 {
        fill: #eab32c;
      }
    </style>
  </defs>
  <g>
    <path class="cls-6" d="m38.99,14.11c10.35.62,18.14,4.69,24.18,13.43,5.43,7.86,2.71,14.93-.14,21.93-3.19,7.82-9.8,12.46-18.15,13.84-12.01,1.97-21.75-1.98-28.95-12.02-2.23-3.11-2.27-6.66-2.84-10.12-.36-2.23.28-4.58-.95-6.76-.32-.57-.19-1.85.26-2.34,3.99-4.4,6.18-10.28,11.59-13.53,4.72-2.83,9.76-4.16,15-4.43Z"/>
    <path class="cls-13" d="m45.51,65.26c3.26-.67,3.25,1.01,2.74,2.5-1.1,3.2-3.17,5.99-4.01,9.33-.3,1.18-1.28.97-1.78.15-1.64-2.65-4.08-4.77-5.21-7.76-.67-1.77-.65-3.3,1.71-3.59,2.43-.3,4.88-.47,6.56-.63Z"/>
    <path class="cls-10" d="m22.6,60.8c2.92.97,5.7,2.33,7.73,4.81.85,1.04.18,2.15-.51,2.96-1.95,2.27-4.18,5.46-6.97,5.06-2.76-.4-1.46-4.4-2.22-6.73-.43-1.33-.14-2.96.08-4.42.13-.84.38-2.04,1.9-1.68Z"/>
    <path class="cls-14" d="m60.64,66.02c0,1.65.03,3.3-.01,4.94-.02.91.32,2.1-.93,2.43-.97.25-1.89-.21-2.58-.97-1.3-1.41-2.75-2.71-3.84-4.27-2.47-3.53-2.22-4.69,1.8-6.42,1.91-.82,3.58-3.74,5.5-2.42,1.47,1.01-.19,3.85.06,5.88.03.27,0,.55,0,.82Z"/>
    <path class="cls-11" d="m71.13,33.21c1.94.6,4.46,1.21,6.84,2.18,2.61,1.06,2.36,2.69.33,4.22-.75.57-1.63.99-2.49,1.39-7.73,3.55-8.2,3.23-8.02-5.41.04-2.05.71-2.63,3.34-2.38Z"/>
    <path class="cls-4" d="m73.94,57.13c.12,3.27-.43,4.6-3.01,3.11-.7-.4-1.5-.65-2.25-.97-6.58-2.75-6.91-4.63-1.74-9.74,1.68-1.66,3.33-1.39,4.38.5,1.38,2.49,2.44,5.17,2.61,7.09Z"/>
    <path class="cls-15" d="m39.26,12.27c-5.79,0-5.92-.21-3.29-5.62.89-1.82,1.73-3.69,2.86-5.36,1.28-1.88,2.75-1.65,3.64.4.64,1.48.98,3.09,1.4,4.66,1.49,5.6,1.22,5.93-4.62,5.93Z"/>
    <path class="cls-14" d="m69.2,16.52c2.09.03,3.38.26,4.08,1.35.83,1.3-.33,2.26-1.02,3.2-.56.76-1.25,1.44-1.93,2.11-5.36,5.28-6.61,4.91-9.06-2.23-.57-1.66.59-2.11,1.34-2.4,2.39-.92,4.89-1.53,6.59-2.03Z"/>
    <path class="cls-9" d="m31.82,12.24c-3.19,1.9-6.09,2.03-8.06,4.14-.65.69-2.29.69-2.53-.78-.43-2.68-.88-5.44-.71-8.12.16-2.44,1.84-3.42,4-1.68,2.42,1.95,4.67,4.11,7.29,6.45Z"/>
    <path class="cls-12" d="m56.07,17.05c-1.93-1.42-4.65-2.55-5.82-4.57-.86-1.5,1.52-3.29,3.21-4.2,2.32-1.25,5.18-4,7.28-2.24,2.34,1.96-.53,4.94-1.3,7.42-.48,1.56-1.3,3.04-3.37,3.6Z"/>
    <path class="cls-15" d="m18.35,20.28c.06.56-5.06,7.14-5.75,7.16-1.39.04-1.68-1.25-2.23-2.09-1.5-2.26-5.17-4.46-3.27-7.16,2.15-3.06,5.74-.55,8.65.24,1,.27,2.2.4,2.59,1.85Z"/>
    <path class="cls-5" d="m8.73,58.47c-1.72.18-2.61-.31-2.48-2.25.21-3.19,2.99-8.66,4.52-8.58,1.02.05,5.71,5.84,5.33,6.85-1.28,3.41-4.49,3.46-7.37,3.98Z"/>
    <path class="cls-14" d="m9.9,32.03c-1.56-1.48-3.35-.02-4.96.53-1.53.52-2.96,1.32-4.43,1.99-1.04.15-.21,1.58.11,2.4s2.35,2.08,2.35,2.08q5.95,4.91,7.22-2.32c.27-1.57.97-3.49-.29-4.69Z"/>
    <path class="cls-18" d="m2.04,35.93c2.36-1.15,4.71-3.06,6.05-1.95,1.63,1.35-.59,3.88-.21,6.3-2.62-.96-3.73-3.02-5.84-4.35Z"/>
    <path class="cls-1" d="m16.7,30.12c4.92-9.89,12.55-13.9,22.55-13.9,9.95,0,17.51,4.15,22.7,13.29-4.25,0-7.98-.06-11.7.02-2.16.05-4.9-.84-6.34.8-3.22,3.67-5.81,2.08-9.48.64-3.5-1.37-7.82-.69-11.78-.86-1.74-.07-3.49-.01-5.94-.01Z"/>
    <path class="cls-1" d="m60.71,49.37c-2.92,7.17-8.93,10.53-15.92,12.16-10.39,2.42-21.71-2.55-27.47-11.58-.65-1.01-1.58-1.97-.93-3.36,4.79,5.16,11.14,3.98,17.1,4.12,1.39.03,2.15-1.53,2.7-2.84.8-1.9,1.34-3.87,1.47-5.94.06-1,.37-2.27,1.26-2.39,1.47-.2,1.43,1.43,1.73,2.37.37,1.16.35,2.43.61,3.63,1.07,4.86,2.71,6.23,7.85,6.3,4.05.06,8.22.44,11.68-2.43l-.07-.06Z"/>
    <path class="cls-3" d="m53.17,34.78q5.6.26,4.04,6.56c-1.29,5.24-5.01,7.43-9.84,5.26-3.7-1.66-2.92-5.49-3.11-8.68-.17-2.83,2.23-2.75,4-3.09,1.32-.26,2.73-.05,4.91-.05Z"/>
    <path class="cls-17" d="m60.78,49.42c.55-3.71.41-7.57,2.78-10.84.03,3.84,0,7.66-2.86,10.78,0,0,.07.06.07.06Z"/>
    <path class="cls-24" d="m43.15,74.59c-1.67-2.43-4.78-3.85-3.62-6.43.71-1.58,4.94-1.29,5.49-.57,1.84,2.45-1.67,4.06-1.87,7Z"/>
    <path class="cls-22" d="m22.44,66.72c.42-1.4-.79-2.91,1.03-3.43.98-.28,5.31,2.88,4.97,3.59-.9,1.87-2.54,4.03-4.26,4.01-2.97-.04-.26-3.23-1.74-4.17Z"/>
    <path class="cls-16" d="m58.68,61.35v9.66c-2.54-1.74-4.56-3.56-4.63-5.83-.07-2.29,3.15-1.73,4.63-3.83Z"/>
    <path class="cls-27" d="m77.72,37.46c-1.26,1.48-2.75,1.83-4.12,2.32-1.01.36-2.18,2.02-3.07.64-.72-1.12-.99-3.05-.54-4.28.61-1.67,2.27-.57,3.49-.27,1.43.35,2.95.5,4.24,1.59Z"/>
    <path class="cls-20" d="m65.05,55.74c1.44-2.2,2.29-4.08,4.3-5.27,1.67,2.4,2.18,5.08,3.24,8.39-3-1.24-5.2-2.15-7.54-3.12Z"/>
    <path class="cls-26" d="m40.32,2.29c1.16,1.57,1.3,3.06,1.69,4.46.32,1.15,1.26,2.64.03,3.28-1.19.62-2.88.37-4.34.31-.87-.03-1.02-.84-.7-1.51,1.03-2.15,2.15-4.25,3.32-6.54Z"/>
    <path class="cls-23" d="m71.87,18.62c-2.44,2.36-4.16,4.01-5.9,5.69-.71-1.3-2.99-2.96-2.22-3.85,1.69-1.97,4.58-1.7,8.13-1.84Z"/>
    <path class="cls-25" d="m23.27,7.08c1.43,1.52,2.86,3.04,4.39,4.66-1.55.78-2.83,1.43-4.57,2.3-.24-2.48-.44-4.53-.64-6.58.27-.13.54-.25.82-.38Z"/>
    <path class="cls-23" d="m52.39,11.86c1.71-2.15,3.77-3.3,6.47-3.89.31,2.54-.61,4.96-2.21,6.15-1.46,1.08-2.73-1.38-4.26-2.26Z"/>
    <path class="cls-21" d="m12.59,24.94c-1.52-2-4.46-3.6-3.33-5.69.79-1.47,4.39-.25,5.44,1,1.54,1.83-1.13,3-2.11,4.69Z"/>
    <path class="cls-19" d="m10.81,49.8c1.4,1.94,2.43,3.36,3.5,4.84-1.85,1.29-3.73,1.82-6.15,1.88.52-2.37,1.18-4.45,2.65-6.72Z"/>
    <path class="cls-2" d="m25.47,34.57c.55,0,1.1,0,1.65,0,2.66.02,5.75-.03,6.23,3.26.43,3,.44,6.49-2.76,8.39-2.4,1.42-7.2-.06-8.89-2.48-1.44-2.07-1.8-4.54-2.19-6.97-.23-1.4.46-2.01,1.85-2.02,1.37-.01,2.75-.11,4.12-.18Z"/>
    <path class="cls-8" d="m64.31,32.72c-1.33-1.95-4.66-.91-7.03-1.14-4.43-.42-9.64-2.03-13.21.82-3.47,2.77-5.75,3.45-9.01.51-.56-.5-1.52-.75-2.3-.77-5.63-.1-11.26-.17-16.89-.11-2.11.02-2.91,1.28-1.27,2.84,2,1.9,2.25,4.19,2.6,6.68.75,5.31,2.01,6.41,7.3,7.18.49.15,1.06.29,1.7.4.69.11,1.31.15,1.85.16,6.24.1,6.71-.29,7.86-7.14.3-1.79.36-3.69,2.3-4.47.19-.08.78-.35,1.42-.17.98.27,1.42,1.35,1.98,2.78.35,1.49.69,2.87.89,3.36l.63,2.67s.09,1.05.67,1.89c.11.2.27.36.45.51.16.13.33.25.53.34,0,0,0,0,0,0,.28.15.58.28.89.42,2.52,1.13,5.15.74,7.72.67,4.73-.13,6.07-1.4,6.43-6.06.15-1.95.79-3.7,1.28-5.54.62-2.37,5.12-3.04,3.22-5.84Zm-34.5,15.78c-.66.09-4.66-.3-4.52-.49-6.12-1.64-6.71-6.74-7.56-11.81-.4-2.38.2-3.31,2.63-3.23,2.47.08,4.94-.07,7.41-.06,3.51.01,6.76.65,7.35,4.87.52,3.74-.71,10.08-5.3,10.72Zm30.81-13.1c-.96,3.68-1.96,7.37-3.21,10.96-.44,1.26-1.74,2.22-3.26,2.16-2.43-.09-4.97.44-7.3-.25-.95-.29-2.73-1.06-3.19-2.85-.31-1.24-.58-1.91-.94-4.35-.72-4.89.59-5.9.59-5.9h-.02c.13-.15.26-.3.4-.45.62-.63,1.33-1.14,2.96-1.4,4.1-.65,8.19-.48,12.27.25,1.08.19,2,.65,1.69,1.83Z"/>
  </g>
  <g>
    <path class="cls-7" d="m136.71,63.85c-1.8,4.82-3.38,5.62-8.57,4.46-5.04-1.15-6.41-2.52-7.2-7.63l-2.81-17.57-5.47,17.07c-1.73,5.54-3.46,7.06-9.22,8.28-5.62,1.15-7.2.07-8.21-5.54l-7.49-41.69c-1.01-5.69.07-7.27,5.76-8.28l4.61-.86c5.62-1.08,7.2.22,7.78,5.9l2.23,22.03,5.26-16.2c1.15-3.67,2.3-4.75,6.12-4.75s4.97.5,5.69,4.25l3.38,18.43,7.7-23.19c1.8-5.47,3.6-6.41,9.07-4.61l2.23.79c5.47,1.8,6.34,3.6,4.32,9l-15.19,40.11Z"/>
    <path class="cls-7" d="m209.72,40.52c0,16.71-13.39,27.15-28.37,27.15s-26.5-11.38-26.5-26.64,10.15-28.73,27.43-28.73,27.43,13.61,27.43,28.23Zm-16.71.65c0-5.62-3.67-11.59-10.58-11.59s-11.52,5.11-11.52,12.6c0,6.05,3.67,11.95,11.59,11.95,6.41,0,10.51-5.33,10.51-12.96Z"/>
    <path class="cls-7" d="m268.18,40.52c0,16.71-13.39,27.15-28.37,27.15s-26.5-11.38-26.5-26.64,10.15-28.73,27.43-28.73,27.43,13.61,27.43,28.23Zm-16.71.65c0-5.62-3.67-11.59-10.58-11.59s-11.52,5.11-11.52,12.6c0,6.05,3.67,11.95,11.59,11.95,6.41,0,10.51-5.33,10.51-12.96Z"/>
    <path class="cls-7" d="m316.56,63.64c-.29,3.31-1.08,4.18-4.46,4.9-3.31.65-4.46.14-6.26-2.66l-17.43-27.07,1.01,21.89c.22,5.69-1.22,7.06-6.84,6.48l-1.15-.14c-5.76-.58-7.2-2.09-7.34-7.92l-.86-34.35c-.14-5.83,1.01-7.63,6.84-8.57l2.66-.43c5.83-.94,7.63-.22,10.37,5.04l10.95,20.74-.79-20.23c-.22-5.76,1.15-7.42,6.91-7.63l3.67-.14c5.69-.22,7.06,1.08,6.55,6.77l-3.82,43.35Z"/>
    <path class="cls-7" d="m362.93,48.73l-3.96-.07c-4.18-.07-5.18-1.08-5.33-5.4-.07-4.18.94-5.18,5.11-5.4l19.95-.94c1.15-.07,1.51.22,1.58,1.37v1.66c0,20.88-13.9,29.88-26.64,29.88-14.11,0-28.66-11.02-28.66-29.38s13.97-28.37,30.24-28.37c3.74,0,7.71.58,11.52,1.73,5.26,1.58,6.19,3.74,3.74,8.64l-.43.86c-2.52,5.04-3.75,5.62-9.22,4.03-2.23-.65-4.54-1.01-6.7-1.01-6.7,0-12.46,3.53-12.46,14.11,0,9.14,6.91,15.62,12.75,15.62,3.82,0,7.2-2.16,8.5-7.34Z"/>
    <path class="cls-7" d="m456.39,54.57c4.03,3.96,3.89,5.98-.65,9.36l-1.3.94c-4.68,3.53-6.7,3.31-10.8-.86l-13.18-13.61-1.37,13.25c-.5,4.68-1.87,5.62-6.55,4.61-4.75-1.08-5.9-2.38-6.05-7.2l-1.22-39.6c-.14-5.76,1.22-7.27,6.99-7.06l3.38.14c5.76.22,7.06,1.58,6.55,7.34l-1.37,14.19,10.51-14.62c3.38-4.75,5.54-5.76,11.38-5.47l2.09.14c5.26.29,5.98,1.94,2.81,6.05l-14.76,19.01,13.54,13.39Z"/>
    <path class="cls-7" d="m493.17,61.84c-.36,5.62-1.8,6.84-7.34,6.26l-14.26-1.44c-5.18-.5-6.41-1.94-5.98-7.13l.07-.65c.36-4.83,1.58-5.91,6.48-5.62l1.08-26.71c-4.68,0-5.83-1.08-5.98-5.69v-.65c-.14-5.04,1.01-6.34,5.98-6.55l17.79-.72c5.47-.22,6.84,1.08,6.7,6.7-.14,5.54-1.51,6.91-7.27,6.91l-1.94,27.94c4.18.22,5.11,1.3,4.83,5.4l-.14,1.94Z"/>
    <path class="cls-7" d="m568.34,60.33c.58,5.69-.79,7.13-6.48,6.98-9.43-.29-10.8-1.01-11.23-7.56l-1.66-25.2-10.15,27.51c-1.15,3.02-2.09,3.6-5.4,3.38-3.24-.14-4.18-.86-5.26-3.96l-9-26.28-1.58,24.63c-.36,5.76-1.94,6.91-10.3,5.54-5.76-.94-6.91-2.52-5.9-8.28l6.34-37.95c1.01-5.76,2.59-6.91,8.42-6.55l3.31.22c5.91.36,7.63,1.8,9.65,7.34l6.77,18.51,7.13-17.07c2.3-5.4,4.1-6.77,10.01-6.91l3.67-.07c5.83-.14,7.34,1.08,7.92,6.91l3.74,38.81Z"/>
  </g>
</svg>