<?xml version="1.0" encoding="UTF-8"?>
<svg id="_레이어_1" data-name="레이어 1" xmlns="http://www.w3.org/2000/svg" viewBox="0 0 77.91 568.47">
  <defs>
    <style>
      .cls-1 {
        fill: #f3b924;
      }

      .cls-1, .cls-2, .cls-3, .cls-4, .cls-5, .cls-6, .cls-7, .cls-8, .cls-9, .cls-10, .cls-11, .cls-12, .cls-13, .cls-14, .cls-15, .cls-16, .cls-17, .cls-18, .cls-19, .cls-20, .cls-21, .cls-22, .cls-23, .cls-24, .cls-25, .cls-26, .cls-27 {
        stroke-width: 0px;
      }

      .cls-2 {
        fill: #27acae;
      }

      .cls-3 {
        fill: #27acaf;
      }

      .cls-4 {
        fill: #191612;
      }

      .cls-5 {
        fill: #1d1915;
      }

      .cls-6 {
        fill: #090706;
      }

      .cls-7 {
        fill: #434951;
      }

      .cls-8 {
        fill: #226d6f;
      }

      .cls-9 {
        fill: #211c17;
      }

      .cls-10 {
        fill: #201b16;
      }

      .cls-11 {
        fill: #201b18;
      }

      .cls-12 {
        fill: #201b17;
      }

      .cls-13 {
        fill: #1f1a15;
      }

      .cls-14 {
        fill: #1e1a16;
      }

      .cls-15 {
        fill: #1e1a17;
      }

      .cls-16 {
        fill: #e0ac32;
      }

      .cls-17 {
        fill: #d6a737;
      }

      .cls-18 {
        fill: #e7b12e;
      }

      .cls-19 {
        fill: #e9b22d;
      }

      .cls-20 {
        fill: #ebb42a;
      }

      .cls-21 {
        fill: #ebb32b;
      }

      .cls-22 {
        fill: #efb628;
      }

      .cls-23 {
        fill: #ecb42a;
      }

      .cls-24 {
        fill: #f1b726;
      }

      .cls-25 {
        fill: #e8b22c;
      }

      .cls-26 {
        fill: #e8b12e;
      }

      .cls-27 {
        fill: #eab32c;
      }
    </style>
  </defs>
  <g>
    <path class="cls-6" d="m14.11,529.48c.62-10.35,4.69-18.14,13.43-24.18,7.86-5.43,14.93-2.71,21.93.14,7.82,3.19,12.46,9.8,13.84,18.15,1.97,12.01-1.98,21.75-12.02,28.95-3.11,2.23-6.66,2.27-10.12,2.84-2.23.36-4.58-.28-6.76.95-.57.32-1.85.19-2.34-.26-4.4-3.99-10.28-6.18-13.53-11.59-2.83-4.72-4.16-9.76-4.43-15Z"/>
    <path class="cls-13" d="m65.26,522.96c-.67-3.26,1.01-3.25,2.5-2.74,3.2,1.1,5.99,3.17,9.33,4.01,1.18.3.97,1.28.15,1.78-2.65,1.64-4.77,4.08-7.76,5.21-1.77.67-3.3.65-3.59-1.71-.3-2.43-.47-4.88-.63-6.56Z"/>
    <path class="cls-10" d="m60.8,545.87c.97-2.92,2.33-5.7,4.81-7.73,1.04-.85,2.15-.18,2.96.51,2.27,1.95,5.46,4.18,5.06,6.97-.4,2.76-4.4,1.46-6.73,2.22-1.33.43-2.96.14-4.42-.08-.84-.13-2.04-.38-1.68-1.9Z"/>
    <path class="cls-14" d="m66.02,507.82c1.65,0,3.3-.03,4.94.01.91.02,2.1-.32,2.43.93.25.97-.21,1.89-.97,2.58-1.41,1.3-2.71,2.75-4.27,3.84-3.53,2.47-4.69,2.22-6.42-1.8-.82-1.91-3.74-3.58-2.42-5.5,1.01-1.47,3.85.19,5.88-.06.27-.03.55,0,.82,0Z"/>
    <path class="cls-11" d="m33.21,497.33c.6-1.94,1.21-4.46,2.18-6.84,1.06-2.61,2.69-2.36,4.22-.33.57.75.99,1.63,1.39,2.49,3.55,7.73,3.23,8.2-5.41,8.02-2.05-.04-2.63-.71-2.38-3.34Z"/>
    <path class="cls-4" d="m57.13,494.52c3.27-.12,4.6.43,3.11,3.01-.4.7-.65,1.5-.97,2.25-2.75,6.58-4.63,6.91-9.74,1.74-1.66-1.68-1.39-3.33.5-4.38,2.49-1.38,5.17-2.44,7.09-2.61Z"/>
    <path class="cls-15" d="m12.27,529.21c0,5.79-.21,5.92-5.62,3.29-1.82-.89-3.69-1.73-5.36-2.86-1.88-1.28-1.65-2.75.4-3.64,1.48-.64,3.09-.98,4.66-1.4,5.6-1.49,5.93-1.22,5.93,4.62Z"/>
    <path class="cls-14" d="m16.52,499.27c.03-2.09.26-3.38,1.35-4.08,1.3-.83,2.26.33,3.2,1.02.76.56,1.44,1.25,2.11,1.93,5.28,5.36,4.91,6.61-2.23,9.06-1.66.57-2.11-.59-2.4-1.34-.92-2.39-1.53-4.89-2.03-6.59Z"/>
    <path class="cls-9" d="m12.24,536.65c1.9,3.19,2.03,6.09,4.14,8.06.69.65.69,2.29-.78,2.53-2.68.43-5.44.88-8.12.71-2.44-.16-3.42-1.84-1.68-4,1.95-2.42,4.11-4.67,6.45-7.29Z"/>
    <path class="cls-12" d="m17.05,512.39c-1.42,1.93-2.55,4.65-4.57,5.82-1.5.86-3.29-1.52-4.2-3.21-1.25-2.32-4-5.18-2.24-7.28,1.96-2.34,4.94.53,7.42,1.3,1.56.48,3.04,1.3,3.6,3.37Z"/>
    <path class="cls-15" d="m20.28,550.11c.56-.06,7.14,5.06,7.16,5.75.04,1.39-1.25,1.68-2.09,2.23-2.26,1.5-4.46,5.17-7.16,3.27-3.06-2.15-.55-5.74.24-8.65.27-1,.4-2.2,1.85-2.59Z"/>
    <path class="cls-5" d="m58.47,559.74c.18,1.72-.31,2.61-2.25,2.48-3.19-.21-8.66-2.99-8.58-4.52.05-1.02,5.84-5.71,6.85-5.33,3.41,1.28,3.46,4.49,3.98,7.37Z"/>
    <path class="cls-14" d="m32.03,558.57c-1.48,1.56-.02,3.35.53,4.96.52,1.53,1.32,2.96,1.99,4.43.15,1.04,1.58.21,2.4-.11s2.08-2.35,2.08-2.35q4.91-5.95-2.32-7.22c-1.57-.27-3.49-.97-4.69.29Z"/>
    <path class="cls-18" d="m35.93,566.43c-1.15-2.36-3.06-4.71-1.95-6.05,1.35-1.63,3.88.59,6.3.21-.96,2.62-3.02,3.73-4.35,5.84Z"/>
    <path class="cls-1" d="m30.12,551.77c-9.89-4.92-13.9-12.55-13.9-22.55,0-9.95,4.15-17.51,13.29-22.7,0,4.25-.06,7.98.02,11.7.05,2.16-.84,4.9.8,6.34,3.67,3.22,2.08,5.81.64,9.48-1.37,3.5-.69,7.82-.86,11.78-.07,1.74-.01,3.49-.01,5.94Z"/>
    <path class="cls-1" d="m49.37,507.75c7.17,2.92,10.53,8.93,12.16,15.92,2.42,10.39-2.55,21.71-11.58,27.47-1.01.65-1.97,1.58-3.36.93,5.16-4.79,3.98-11.14,4.12-17.1.03-1.39-1.53-2.15-2.84-2.7-1.9-.8-3.87-1.34-5.94-1.47-1-.06-2.27-.37-2.39-1.26-.2-1.47,1.43-1.43,2.37-1.73,1.16-.37,2.43-.35,3.63-.61,4.86-1.07,6.23-2.71,6.3-7.85.06-4.05.44-8.22-2.43-11.68l-.06.07Z"/>
    <path class="cls-3" d="m34.78,515.3q.26-5.6,6.56-4.04c5.24,1.29,7.43,5.01,5.26,9.84-1.66,3.7-5.49,2.92-8.68,3.11-2.83.17-2.75-2.23-3.09-4-.26-1.32-.05-2.73-.05-4.91Z"/>
    <path class="cls-17" d="m49.42,507.68c-3.71-.55-7.57-.41-10.84-2.78,3.84-.03,7.66,0,10.78,2.86,0,0,.06-.07.06-.07Z"/>
    <path class="cls-24" d="m74.59,525.31c-2.43,1.67-3.85,4.78-6.43,3.62-1.58-.71-1.29-4.94-.57-5.49,2.45-1.84,4.06,1.67,7,1.87Z"/>
    <path class="cls-22" d="m66.72,546.02c-1.4-.42-2.91.79-3.43-1.03-.28-.98,2.88-5.31,3.59-4.97,1.87.9,4.03,2.54,4.01,4.26-.04,2.97-3.23.26-4.17,1.74Z"/>
    <path class="cls-16" d="m61.35,509.79h9.66c-1.74,2.54-3.56,4.56-5.83,4.63-2.29.07-1.73-3.15-3.83-4.63Z"/>
    <path class="cls-27" d="m37.46,490.75c1.48,1.26,1.83,2.75,2.32,4.12.36,1.01,2.02,2.18.64,3.07-1.12.72-3.05.99-4.28.54-1.67-.61-.57-2.27-.27-3.49.35-1.43.5-2.95,1.59-4.24Z"/>
    <path class="cls-20" d="m55.74,503.41c-2.2-1.44-4.08-2.29-5.27-4.3,2.4-1.67,5.08-2.18,8.39-3.24-1.24,3-2.15,5.2-3.12,7.54Z"/>
    <path class="cls-26" d="m2.29,528.14c1.57-1.16,3.06-1.3,4.46-1.69,1.15-.32,2.64-1.26,3.28-.03.62,1.19.37,2.88.31,4.34-.03.87-.84,1.02-1.51.7-2.15-1.03-4.25-2.15-6.54-3.32Z"/>
    <path class="cls-23" d="m18.62,496.59c2.36,2.44,4.01,4.16,5.69,5.9-1.3.71-2.96,2.99-3.85,2.22-1.97-1.69-1.7-4.58-1.84-8.13Z"/>
    <path class="cls-25" d="m7.08,545.2c1.52-1.43,3.04-2.86,4.66-4.39.78,1.55,1.43,2.83,2.3,4.57-2.48.24-4.53.44-6.58.64-.13-.27-.25-.54-.38-.82Z"/>
    <path class="cls-23" d="m11.86,516.08c-2.15-1.71-3.3-3.77-3.89-6.47,2.54-.31,4.96.61,6.15,2.21,1.08,1.46-1.38,2.73-2.26,4.26Z"/>
    <path class="cls-21" d="m24.94,555.88c-2,1.52-3.6,4.46-5.69,3.33-1.47-.79-.25-4.39,1-5.44,1.83-1.54,3,1.13,4.69,2.11Z"/>
    <path class="cls-19" d="m49.8,557.65c1.94-1.4,3.36-2.43,4.84-3.5,1.29,1.85,1.82,3.73,1.88,6.15-2.37-.52-4.45-1.18-6.72-2.65Z"/>
    <path class="cls-2" d="m34.57,542.99c0-.55,0-1.1,0-1.65.02-2.66-.03-5.75,3.26-6.23,3-.43,6.49-.44,8.39,2.76,1.42,2.4-.06,7.2-2.48,8.89-2.07,1.44-4.54,1.8-6.97,2.19-1.4.23-2.01-.46-2.02-1.85-.01-1.37-.11-2.75-.18-4.12Z"/>
    <path class="cls-8" d="m32.72,504.16c-1.95,1.33-.91,4.66-1.14,7.03-.42,4.43-2.03,9.64.82,13.21,2.77,3.47,3.45,5.75.51,9.01-.5.56-.75,1.52-.77,2.3-.1,5.63-.17,11.26-.11,16.89.02,2.11,1.28,2.91,2.84,1.27,1.9-2,4.19-2.25,6.68-2.6,5.31-.75,6.41-2.01,7.18-7.3.15-.49.29-1.06.4-1.7.11-.69.15-1.31.16-1.85.1-6.24-.29-6.71-7.14-7.86-1.79-.3-3.69-.36-4.47-2.3-.08-.19-.35-.78-.17-1.42.27-.98,1.35-1.42,2.78-1.98,1.49-.35,2.87-.69,3.36-.89l2.67-.63s1.05-.09,1.89-.67c.2-.11.36-.27.51-.45.13-.16.25-.33.34-.53,0,0,0,0,0,0,.15-.28.28-.58.42-.89,1.13-2.52.74-5.15.67-7.72-.13-4.73-1.4-6.07-6.06-6.43-1.95-.15-3.7-.79-5.54-1.28-2.37-.62-3.04-5.12-5.84-3.22Zm15.78,34.5c.09.66-.3,4.66-.49,4.52-1.64,6.12-6.74,6.71-11.81,7.56-2.38.4-3.31-.2-3.23-2.63.08-2.47-.07-4.94-.06-7.41.01-3.51.65-6.76,4.87-7.35,3.74-.52,10.08.71,10.72,5.3Zm-13.1-30.81c3.68.96,7.37,1.96,10.96,3.21,1.26.44,2.22,1.74,2.16,3.26-.09,2.43.44,4.97-.25,7.3-.29.95-1.06,2.73-2.85,3.19-1.24.31-1.91.58-4.35.94-4.89.72-5.9-.59-5.9-.59v.02c-.15-.13-.3-.26-.45-.4-.63-.62-1.14-1.33-1.4-2.96-.65-4.1-.48-8.19.25-12.27.19-1.08.65-2,1.83-1.69Z"/>
  </g>
  <g>
    <path class="cls-7" d="m63.85,431.76c4.82,1.8,5.62,3.38,4.46,8.57-1.15,5.04-2.52,6.41-7.63,7.2l-17.57,2.81,17.07,5.47c5.54,1.73,7.06,3.46,8.28,9.22,1.15,5.62.07,7.2-5.54,8.21l-41.69,7.49c-5.69,1.01-7.27-.07-8.28-5.76l-.86-4.61c-1.08-5.62.22-7.2,5.9-7.78l22.03-2.23-16.2-5.26c-3.67-1.15-4.75-2.3-4.75-6.12s.5-4.97,4.25-5.69l18.43-3.38-23.19-7.7c-5.47-1.8-6.41-3.6-4.61-9.07l.79-2.23c1.8-5.47,3.6-6.34,9-4.32l40.11,15.19Z"/>
    <path class="cls-7" d="m40.52,358.75c16.71,0,27.15,13.39,27.15,28.37s-11.38,26.5-26.64,26.5-28.73-10.15-28.73-27.43,13.61-27.43,28.23-27.43Zm.65,16.71c-5.62,0-11.59,3.67-11.59,10.58s5.11,11.52,12.6,11.52c6.05,0,11.95-3.67,11.95-11.59,0-6.41-5.33-10.51-12.96-10.51Z"/>
    <path class="cls-7" d="m40.52,300.29c16.71,0,27.15,13.39,27.15,28.37s-11.38,26.5-26.64,26.5-28.73-10.15-28.73-27.43,13.61-27.43,28.23-27.43Zm.65,16.71c-5.62,0-11.59,3.67-11.59,10.58s5.11,11.52,12.6,11.52c6.05,0,11.95-3.67,11.95-11.59,0-6.41-5.33-10.51-12.96-10.51Z"/>
    <path class="cls-7" d="m63.64,251.9c3.31.29,4.18,1.08,4.9,4.46.65,3.31.14,4.46-2.66,6.26l-27.07,17.43,21.89-1.01c5.69-.22,7.06,1.22,6.48,6.84l-.14,1.15c-.58,5.76-2.09,7.2-7.92,7.34l-34.35.86c-5.83.14-7.63-1.01-8.57-6.84l-.43-2.66c-.94-5.83-.22-7.63,5.04-10.37l20.74-10.95-20.23.79c-5.76.22-7.42-1.15-7.63-6.91l-.14-3.67c-.22-5.69,1.08-7.06,6.77-6.55l43.35,3.82Z"/>
    <path class="cls-7" d="m48.73,205.54l-.07,3.96c-.07,4.18-1.08,5.18-5.4,5.33-4.18.07-5.18-.94-5.4-5.11l-.94-19.95c-.07-1.15.22-1.51,1.37-1.58h1.66c20.88,0,29.88,13.9,29.88,26.64,0,14.11-11.02,28.66-29.38,28.66s-28.37-13.97-28.37-30.24c0-3.74.58-7.71,1.73-11.52,1.58-5.26,3.74-6.19,8.64-3.74l.86.43c5.04,2.52,5.62,3.75,4.03,9.22-.65,2.23-1.01,4.54-1.01,6.7,0,6.7,3.53,12.46,14.11,12.46,9.14,0,15.62-6.91,15.62-12.75,0-3.82-2.16-7.2-7.34-8.5Z"/>
    <path class="cls-7" d="m54.57,112.08c3.96-4.03,5.98-3.89,9.36.65l.94,1.3c3.53,4.68,3.31,6.7-.86,10.8l-13.61,13.18,13.25,1.37c4.68.5,5.62,1.87,4.61,6.55-1.08,4.75-2.38,5.9-7.2,6.05l-39.6,1.22c-5.76.14-7.27-1.22-7.06-6.99l.14-3.38c.22-5.76,1.58-7.06,7.34-6.55l14.19,1.37-14.62-10.51c-4.75-3.38-5.76-5.54-5.47-11.38l.14-2.09c.29-5.26,1.94-5.98,6.05-2.81l19.01,14.76,13.39-13.54Z"/>
    <path class="cls-7" d="m61.84,75.29c5.62.36,6.84,1.8,6.26,7.34l-1.44,14.26c-.5,5.18-1.94,6.41-7.13,5.98l-.65-.07c-4.83-.36-5.91-1.58-5.62-6.48l-26.71-1.08c0,4.68-1.08,5.83-5.69,5.98h-.65c-5.04.14-6.34-1.01-6.55-5.98l-.72-17.79c-.22-5.47,1.08-6.84,6.7-6.7,5.54.14,6.91,1.51,6.91,7.27l27.94,1.94c.22-4.18,1.3-5.11,5.4-4.83l1.94.14Z"/>
    <path class="cls-7" d="m60.33.12c5.69-.58,7.13.79,6.98,6.48-.29,9.43-1.01,10.8-7.56,11.23l-25.2,1.66,27.51,10.15c3.02,1.15,3.6,2.09,3.38,5.4-.14,3.24-.86,4.18-3.96,5.26l-26.28,9,24.63,1.58c5.76.36,6.91,1.94,5.54,10.3-.94,5.76-2.52,6.91-8.28,5.9l-37.95-6.34c-5.76-1.01-6.91-2.59-6.55-8.42l.22-3.31c.36-5.91,1.8-7.63,7.34-9.65l18.51-6.77-17.07-7.13c-5.4-2.3-6.77-4.1-6.91-10.01l-.07-3.67c-.14-5.83,1.08-7.34,6.91-7.92L60.33.12Z"/>
  </g>
</svg>