<?xml version="1.0" encoding="UTF-8"?>
<svg id="_레이어_1" data-name="레이어 1" xmlns="http://www.w3.org/2000/svg" viewBox="0 0 615.89 428.04">
  <defs>
    <style>
      .cls-1 {
        fill: #0a0909;
      }

      .cls-1, .cls-2 {
        stroke-width: 0px;
      }

      .cls-2 {
        fill: #e14a27;
      }
    </style>
  </defs>
  <path class="cls-1" d="m324.9,420.8c-82.69,3.58-165.54,13.85-248.1.83-50.44-7.96-61.2-18.5-70.74-70.04-16.23-87.69,5.17-174.28,5.98-261.44.36-38.41,21.9-60.45,55.22-72.03,17.33-6.02,36.28-8.62,54.71-10.07C260.58-2.87,399.46.16,538.29,1.12c45.17.31,66.78,16.07,67.91,61.36,2.37,95.4,16.76,190.64,5.37,286.32-5.88,49.39-26.75,70.76-76.75,71.68-69.95,1.29-139.93.33-209.91.33Z"/>
  <path class="cls-2" d="m577.33,22.81c-77.75,86.38-153.04,165.95-233.24,240.82-23.51,21.95-48.47,22.44-71.76,1.27-32.81-29.82-63.89-61.55-96.12-92.03-38.17-36.1-76.12-72.48-115.48-107.25-17.41-15.37-14.88-22.36,4.98-30.77,18.76-7.94,38.53-10.29,57.98-11.74,139.93-10.44,280.09-9.81,420.26-6.56,9.13.21,18.19,3.32,33.39,6.26Z"/>
  <path class="cls-2" d="m33.87,388.94c64.1-45.72,133.14-81.32,199.87-120.66,13.83-8.15,21.23,2.52,30.49,8.95,36.12,25.13,57.85,25.65,90.36-4.45,16.19-14.99,28.03-14.76,45.42-4.96,62.67,35.34,126.03,69.47,179.9,118.7-42.36,33.33-495.47,35.83-546.04,2.42Z"/>
  <path class="cls-2" d="m588.53,32.11c4.26,119.11,19.83,227.96,3.41,343.5-64.67-53.69-133.58-93.11-205.92-131.64,67.65-68.72,134.71-134.01,202.51-211.86Z"/>
  <path class="cls-2" d="m233.56,250.13c-66.13,39.56-129.68,77.66-193.34,115.59-20.16,12.01-17.2-6.64-19.23-15.82-13.58-61.48-1.01-122.9,1.33-184.33,1.06-27.88,3.5-55.72,5.15-83.58,1.03-17.37,6.42-20.54,20.7-8.58,65.11,54.51,122.92,116.45,185.38,176.73Z"/>
</svg>