<?xml version="1.0" encoding="UTF-8"?>
<svg id="_레이어_1" data-name="레이어 1" xmlns="http://www.w3.org/2000/svg" viewBox="0 0 747.44 833.91">
  <defs>
    <style>
      .cls-1 {
        fill: #0a0807;
      }

      .cls-1, .cls-2 {
        stroke-width: 0px;
      }

      .cls-2 {
        fill: #e14a27;
      }
    </style>
  </defs>
  <path class="cls-2" d="m683.81,118.02C560.6-18.13,226.51-77.14,69.86,167.94c-102.07,159.69-91.41,378.35,26.26,534.16,61.57,81.52,145.05,122.71,245.12,131.2,62.16,5.27,98.35-23.81,105.28-78.34,4.05-31.87-2.5-40.31-37.57-31-134.16,35.61-272.82-42.31-309.44-176.44-41.54-152.16-1.8-285.31,115.22-390.57,101.52-91.32,234.41-93.71,340.47-16.5,103.27,75.17,101.3,201.83,64.86,315.55-8.33,25.99-24.92,49.59-55.33,49.51-29.91-.08-45.58-22.78-56.62-48.5-18.9-44.05-17.53-90.18-12.96-136.51,0-23.14-.83-46.32.19-69.41,1.59-36.21-12-49.76-50.71-55.39-30.36-4.41-40.08,24.4-65.86,22.02-72.21-6.65-114.25,36.44-139.92,96.31-32.49,75.8-43.38,155.52-25.06,237.16,16.47,73.43,71.77,108.86,147.04,98.42,37.53-5.21,68.86-21.61,97.42-44.85,11.07-9,17.14-18.34,37.15-10.58,77.96,30.22,139.31,10.89,193.08-53.8,38.75-46.62,53.62-101.8,56.79-160.21,5.04-93.01,7.06-186.43-61.45-262.13Zm-261.12,215.46c-.91,23.06-.75,125.41-1.66,153.43-1.56,48.5-37.92,81.9-86.64,80.73-40.91-.98-63.99-31.1-60.26-84.3,4.32-61.55,25.62-118.88,53.03-173.43,12.32-24.52,33.93-40.18,64.66-33.87,33.22,6.83,31.88,31.81,30.86,57.44Z"/>
  <g>
    <path class="cls-1" d="m683.81,118.02C560.6-18.13,226.51-77.14,69.86,167.94c-102.07,159.69-91.41,378.35,26.26,534.16,61.57,81.52,145.05,122.71,245.12,131.2,62.16,5.27,98.35-23.81,105.28-78.34,4.05-31.87-2.5-40.31-37.57-31-134.16,35.61-272.82-42.31-309.44-176.44-41.54-152.16-1.8-285.31,115.22-390.57,101.52-91.32,234.41-93.71,340.47-16.5,103.27,75.17,101.3,201.83,64.86,315.55-8.33,25.99-24.92,49.59-55.33,49.51-29.91-.08-45.58-22.78-56.62-48.5-18.9-44.05-17.53-90.18-12.96-136.51,0-23.14-.83-46.32.19-69.41,1.59-36.21-12-49.76-50.71-55.39-30.36-4.41-40.08,24.4-65.86,22.02-72.21-6.65-114.25,36.44-139.92,96.31-32.49,75.8-43.38,155.52-25.06,237.16,16.47,73.43,71.77,108.86,147.04,98.42,37.53-5.21,68.86-21.61,97.42-44.85,11.07-9,17.14-18.34,37.15-10.58,77.96,30.22,139.31,10.89,193.08-53.8,38.75-46.62,53.62-101.8,56.79-160.21,5.04-93.01,7.06-186.43-61.45-262.13Zm26.16,330.52c-15.82,62.13-54.34,108.29-116.64,131.9-21.06,7.98-45.9,14.2-62.5,3.39-42.51-27.7-70.85-14.09-105.94,15.49-39.89,33.63-90.79,41.01-139.69,17.27-46.71-22.68-53.28-68.23-54.24-114.2-1.33-63.06,1-125.67,30.22-183.83,26.67-53.08,64.18-88,128.91-78.43,6.44.95,16.38,4.42,18.87,1.59,16.07-18.21,38.62-33.71,56.93-17.49,16.44,14.56,4.8,44.03,6.1,66.87.75,13.19.14,26.47.14,39.7-.33,46.1-6.33,92.98,15.08,136.54,16.84,34.26,39.1,61.81,82.36,60.31,39.71-1.38,59.59-28.64,69.92-60.85,61.47-191.72,16.86-355.38-205.03-399.8-123.87-24.8-218.33,38.8-290.62,132.47-78.14,101.27-99.51,218.17-69.12,342.38,35.51,145.11,171.25,233.8,318.81,211.11,9.25-1.42,20.41-10.69,26.78.17,6.09,10.38.51,22.18-6.82,32.14-11.89,16.16-28.31,20.89-47.38,22.18-76.47,5.18-144.29-17.95-202.07-66.46C-13.36,592-24.91,280.92,139.7,118.1,273.61-14.36,539.05-7.73,666.19,131.11c20.51,22.4,36.08,48.12,43.07,77.16,19.21,79.81,20.94,160.85.71,240.27Z"/>
    <path class="cls-1" d="m391.83,276.05c-30.73-6.32-52.34,9.35-64.66,33.87-27.4,54.55-48.71,111.88-53.03,173.43-3.73,53.2,19.34,83.33,60.26,84.3,48.72,1.17,85.08-32.24,86.64-80.73.9-28.02.75-130.36,1.66-153.43,1.01-25.63,2.36-50.61-30.86-57.44Zm9.21,62.15c-.42,24.71-5.75,126.9-5.44,153.26.47,39.24-28.49,52.52-57.89,54.41-34.64,2.23-42.43-28.43-40.77-55.65,3.64-59.7,23.88-115.45,49.88-168.83,7.3-15,20.76-28.58,39.63-21.49,16.49,6.19,14.84,23.27,14.58,38.3Z"/>
  </g>
</svg>